TYPE-2.mot
version=1
nRows=91
nColumns=10
inDegrees=yes
endheader
time	ground_force_vx	ground_force_vy	ground_force_vz	ground_force_px	ground_force_py	ground_force_pz	ground_torque_x	ground_torque_y	ground_torque_z
0.000000	0.000000	0.000000	0.000000	0.000000	0.000000	0.000000	0.000000	0.000000	0.000000
0.016667	0.000000	0.000000	0.000000	0.000000	0.000000	0.000000	0.000000	0.000000	0.000000
0.033333	0.000000	0.000000	0.000000	0.000000	0.000000	0.000000	0.000000	0.000000	0.000000
0.050000	0.000000	0.000000	0.000000	0.000000	0.000000	0.000000	0.000000	0.000000	0.000000
0.066667	0.000000	0.000000	0.000000	0.000000	0.000000	0.000000	0.000000	0.000000	0.000000
0.083333	0.000000	0.000000	0.000000	0.000000	0.000000	0.000000	0.000000	0.000000	0.000000
0.100000	0.000000	0.000000	0.000000	0.000000	0.000000	0.000000	0.000000	0.000000	0.000000
0.116667	0.000000	0.000000	0.000000	0.000000	0.000000	0.000000	0.000000	0.000000	0.000000
0.133333	0.000000	0.000000	0.000000	0.000000	0.000000	0.000000	0.000000	0.000000	0.000000
0.150000	0.000000	0.000000	0.000000	0.000000	0.000000	0.000000	0.000000	0.000000	0.000000
0.166667	0.000000	0.000000	0.000000	0.000000	0.000000	0.000000	0.000000	0.000000	0.000000
0.183333	0.000000	0.000000	0.000000	0.000000	0.000000	0.000000	0.000000	0.000000	0.000000
0.200000	0.000000	0.000000	0.000000	0.000000	0.000000	0.000000	0.000000	0.000000	0.000000
0.216667	0.000000	0.000000	0.000000	0.000000	0.000000	0.000000	0.000000	0.000000	0.000000
0.233333	0.000000	0.000000	0.000000	0.000000	0.000000	0.000000	0.000000	0.000000	0.000000
0.250000	0.000000	0.000000	0.000000	0.000000	0.000000	0.000000	0.000000	0.000000	0.000000
0.266667	0.000000	0.000000	0.000000	0.000000	0.000000	0.000000	0.000000	0.000000	0.000000
0.283333	0.000000	0.000000	0.000000	0.000000	0.000000	0.000000	0.000000	0.000000	0.000000
0.300000	0.000000	0.000000	0.000000	0.000000	0.000000	0.000000	0.000000	0.000000	0.000000
0.316667	0.000000	0.000000	0.000000	0.000000	0.000000	0.000000	0.000000	0.000000	0.000000
0.333333	0.000000	0.000000	0.000000	0.000000	0.000000	0.000000	0.000000	0.000000	0.000000
0.350000	0.000000	0.000000	0.000000	0.000000	0.000000	0.000000	0.000000	0.000000	0.000000
0.366667	0.000000	0.000000	0.000000	0.000000	0.000000	0.000000	0.000000	0.000000	0.000000
0.383333	0.000000	0.000000	0.000000	0.000000	0.000000	0.000000	0.000000	0.000000	0.000000
0.400000	0.000000	0.000000	0.000000	0.000000	0.000000	0.000000	0.000000	0.000000	0.000000
0.416667	11.173150	130.659739	-10.620623	0.194093	0.000000	-0.322174	0.000000	-0.012771	0.000000
0.433333	20.858373	189.909168	-67.120916	0.191927	0.000000	-0.293995	0.000000	0.143995	0.000000
0.450000	11.660031	240.455667	-59.134257	0.197701	0.000000	-0.297996	0.000000	0.037096	0.000000
0.466667	3.096500	253.057367	-51.643679	0.202913	0.000000	-0.295328	0.000000	0.083387	0.000000
0.483333	-9.801549	266.481497	-71.743787	0.210505	0.000000	-0.279800	0.000000	0.319296	0.000000
0.500000	-12.287065	330.259998	-79.864622	0.212467	0.000000	-0.272087	0.000000	0.461873	0.000000
0.516667	-10.910506	374.289961	-87.651206	0.212293	0.000000	-0.265679	0.000000	0.355689	0.000000
0.533333	-12.758096	385.776527	-80.709594	0.212794	0.000000	-0.263563	0.000000	0.217069	0.000000
0.550000	-13.498754	391.670964	-74.757632	0.212946	0.000000	-0.262236	0.000000	0.104119	0.000000
0.566667	-9.870216	389.945604	-64.261940	0.211857	0.000000	-0.262974	0.000000	0.054965	0.000000
0.583333	-8.492403	375.559550	-55.369604	0.211822	0.000000	-0.262181	0.000000	0.123098	0.000000
0.600000	-8.019570	353.839240	-46.893702	0.212628	0.000000	-0.259542	0.000000	0.194495	0.000000
0.616667	-7.277274	332.213667	-38.259749	0.213480	0.000000	-0.256870	0.000000	0.257852	0.000000
0.633333	-8.373001	307.677513	-30.350837	0.215149	0.000000	-0.253693	0.000000	0.296268	0.000000
0.650000	-8.314106	286.637205	-23.728767	0.216849	0.000000	-0.248750	0.000000	0.326931	0.000000
0.666667	-7.517590	268.672897	-18.637309	0.218630	0.000000	-0.241467	0.000000	0.322616	0.000000
0.683333	-6.722019	252.358187	-14.854082	0.220548	0.000000	-0.232732	0.000000	0.310851	0.000000
0.700000	-5.844866	239.373857	-11.461801	0.222308	0.000000	-0.224075	0.000000	0.353106	0.000000
0.716667	-5.199651	230.573233	-8.846534	0.223938	0.000000	-0.215659	0.000000	0.415359	0.000000
0.733333	-4.471718	225.220813	-7.139049	0.225192	0.000000	-0.207714	0.000000	0.468699	0.000000
0.750000	-3.747697	222.982108	-5.644601	0.226103	0.000000	-0.200654	0.000000	0.518080	0.000000
0.766667	-3.674422	224.273986	-3.561871	0.227014	0.000000	-0.194767	0.000000	0.525637	0.000000
0.783333	-3.833743	228.539985	-0.912613	0.227690	0.000000	-0.190226	0.000000	0.584390	0.000000
0.800000	-4.751641	235.735912	3.090859	0.228320	0.000000	-0.187563	0.000000	0.594184	0.000000
0.816667	-5.160857	244.569924	7.600369	0.228568	0.000000	-0.185682	0.000000	0.693811	0.000000
0.833333	-7.944347	257.336105	14.466828	0.229282	0.000000	-0.185431	0.000000	0.607528	0.000000
0.850000	-11.069839	274.600538	20.838311	0.229853	0.000000	-0.184862	0.000000	0.465791	0.000000
0.866667	-10.633230	294.407092	27.491816	0.229097	0.000000	-0.183482	0.000000	0.725190	0.000000
0.883333	-9.921590	318.440456	35.726046	0.228085	0.000000	-0.182544	0.000000	0.938046	0.000000
0.900000	-9.293397	344.936118	45.304675	0.227187	0.000000	-0.181598	0.000000	1.136781	0.000000
0.916667	-9.658429	369.602024	58.614368	0.226504	0.000000	-0.181429	0.000000	1.163991	0.000000
0.933333	-9.623617	387.571059	71.419390	0.225528	0.000000	-0.181051	0.000000	1.111092	0.000000
0.950000	-8.694072	397.015320	82.962317	0.224175	0.000000	-0.180580	0.000000	1.011668	0.000000
0.966667	-7.581471	393.112474	93.592489	0.222948	0.000000	-0.180532	0.000000	0.853617	0.000000
0.983333	-6.796588	373.612706	102.272306	0.221915	0.000000	-0.180750	0.000000	0.634019	0.000000
1.000000	-5.661026	337.342542	105.555450	0.220970	0.000000	-0.180651	0.000000	0.447560	0.000000
1.016667	-4.632611	289.798981	102.711188	0.220626	0.000000	-0.180088	0.000000	0.134594	0.000000
1.033333	0.642794	228.349498	85.295435	0.219739	0.000000	-0.177415	0.000000	0.089214	0.000000
1.050000	5.072955	152.152429	69.101340	0.218220	0.000000	-0.178598	0.000000	0.280438	0.000000
1.066667	5.573375	92.896868	44.386639	0.216917	0.000000	-0.176171	0.000000	0.135673	0.000000
1.083333	3.721338	41.381536	20.144411	0.216432	0.000000	-0.170957	0.000000	0.033665	0.000000
1.100000	0.000000	0.000000	0.000000	0.000000	0.000000	0.000000	0.000000	0.000000	0.000000
1.116667	0.000000	0.000000	0.000000	0.000000	0.000000	0.000000	0.000000	0.000000	0.000000
1.133333	0.000000	0.000000	0.000000	0.000000	0.000000	0.000000	0.000000	0.000000	0.000000
1.150000	0.000000	0.000000	0.000000	0.000000	0.000000	0.000000	0.000000	0.000000	0.000000
1.166667	0.000000	0.000000	0.000000	0.000000	0.000000	0.000000	0.000000	0.000000	0.000000
1.183333	0.000000	0.000000	0.000000	0.000000	0.000000	0.000000	0.000000	0.000000	0.000000
1.200000	0.000000	0.000000	0.000000	0.000000	0.000000	0.000000	0.000000	0.000000	0.000000
1.216667	0.000000	0.000000	0.000000	0.000000	0.000000	0.000000	0.000000	0.000000	0.000000
1.233333	0.000000	0.000000	0.000000	0.000000	0.000000	0.000000	0.000000	0.000000	0.000000
1.250000	0.000000	0.000000	0.000000	0.000000	0.000000	0.000000	0.000000	0.000000	0.000000
1.266667	0.000000	0.000000	0.000000	0.000000	0.000000	0.000000	0.000000	0.000000	0.000000
1.283333	0.000000	0.000000	0.000000	0.000000	0.000000	0.000000	0.000000	0.000000	0.000000
1.300000	0.000000	0.000000	0.000000	0.000000	0.000000	0.000000	0.000000	0.000000	0.000000
1.316667	0.000000	0.000000	0.000000	0.000000	0.000000	0.000000	0.000000	0.000000	0.000000
1.333333	0.000000	0.000000	0.000000	0.000000	0.000000	0.000000	0.000000	0.000000	0.000000
1.350000	0.000000	0.000000	0.000000	0.000000	0.000000	0.000000	0.000000	0.000000	0.000000
1.366667	0.000000	0.000000	0.000000	0.000000	0.000000	0.000000	0.000000	0.000000	0.000000
1.383333	0.000000	0.000000	0.000000	0.000000	0.000000	0.000000	0.000000	0.000000	0.000000
1.400000	0.000000	0.000000	0.000000	0.000000	0.000000	0.000000	0.000000	0.000000	0.000000
1.416667	0.000000	0.000000	0.000000	0.000000	0.000000	0.000000	0.000000	0.000000	0.000000
1.433333	0.000000	0.000000	0.000000	0.000000	0.000000	0.000000	0.000000	0.000000	0.000000
1.450000	0.000000	0.000000	0.000000	0.000000	0.000000	0.000000	0.000000	0.000000	0.000000
1.466667	0.000000	0.000000	0.000000	0.000000	0.000000	0.000000	0.000000	0.000000	0.000000
1.483333	0.000000	0.000000	0.000000	0.000000	0.000000	0.000000	0.000000	0.000000	0.000000
1.500000	0.000000	0.000000	0.000000	0.000000	0.000000	0.000000	0.000000	0.000000	0.000000
